<svg xmlns="http://www.w3.org/2000/svg"  viewBox="0 0 16 16" width="32px" height="32px" baseProfile="basic"><polygon fill="#8852ff" points="10.515,12.555 12.555,10.516 14.363,12.95 12.949,14.364"/><polygon fill="#8852ff" points="6.558,13 9.442,13 9,16 7,16"/><polygon fill="#8852ff" points="3.445,10.515 5.484,12.555 3.05,14.363 1.636,12.949"/><polygon fill="#8852ff" points="3,6.558 3,9.442 0,9 0,7"/><polygon fill="#8852ff" points="5.485,3.445 3.445,5.484 1.637,3.05 3.051,1.636"/><polygon fill="#8852ff" points="9.442,3 6.558,3 7,0 9,0"/><polygon fill="#8852ff" points="12.555,5.485 10.516,3.445 12.95,1.637 14.364,3.051"/><polygon fill="#8852ff" points="13,9.442 13,6.558 16,7 16,9"/><path fill="#8852ff" d="M8,2C4.686,2,2,4.686,2,8s2.686,6,6,6s6-2.686,6-6S11.314,2,8,2z M8,10c-1.105,0-2-0.895-2-2 c0-1.105,0.895-2,2-2s2,0.895,2,2C10,9.105,9.105,10,8,10z"/></svg>